<svg width="58" height="64" viewBox="0 0 58 64" fill="none" xmlns="http://www.w3.org/2000/svg">
<g filter="url(#filter0_d_101_419)">
<path fill-rule="evenodd" clip-rule="evenodd" d="M34.0735 8.24579C31.0435 6.99068 27.7653 6.44946 24.4926 6.66394C21.22 6.87847 18.0405 7.84294 15.2002 9.48278L12.3344 11.1373L9.02529 5.40582L11.8911 3.75128C15.6105 1.60388 19.7741 0.340826 24.0598 0.0599609C28.3454 -0.220955 32.6383 0.487801 36.6062 2.13135C40.5741 3.77495 44.1108 6.30926 46.9426 9.53832C49.7742 12.7673 51.8253 16.6046 52.9372 20.7531C54.0485 24.9016 54.1911 29.2502 53.3531 33.4625C52.5152 37.6749 50.7196 41.638 48.1049 45.0454C45.4902 48.4527 42.1271 51.213 38.2752 53.1124C34.4232 55.0119 29.4548 56 25.8911 56C22.3273 56 20.2464 55.4655 17.5136 54.3337C14.8577 53.2336 12.4445 51.6213 10.4117 49.5885C8.37895 47.5557 6.7665 45.1421 5.66636 42.4862C4.56626 39.8305 4 36.9838 4 34.1091C4 31.2344 4.56626 28.3877 5.66636 25.7318C6.7665 23.0759 8.37895 20.6626 10.4117 18.6299C12.4445 16.5971 14.8577 14.9846 17.5136 13.8845C20.1695 12.7844 23.0162 12.2182 25.8909 12.2182C28.7657 12.2182 31.6123 12.7844 34.2682 13.8845C36.9241 14.9846 39.3374 16.5971 41.3701 18.6299C43.4029 20.6626 45.0152 23.0759 46.1154 25.7318C46.5888 26.8742 46.963 28.0519 47.2364 29.252C47.3698 26.9738 47.1381 24.6825 46.5445 22.466C45.6954 19.298 44.1293 16.3678 41.9668 13.902C39.8043 11.4362 37.1036 9.50085 34.0735 8.24579ZM12.6736 41.7612C13.0489 34.6464 18.937 28.9928 26.1455 28.9928C33.0753 28.9928 38.7848 34.2178 39.5494 40.9431C39.7114 40.6192 39.8621 40.2892 40.0011 39.9537C40.7686 38.1007 41.1636 36.1148 41.1636 34.1091C41.1636 32.1035 40.7686 30.1175 40.0011 28.2645C39.2336 26.4115 38.1086 24.7279 36.6904 23.3096C35.2722 21.8914 33.5885 20.7665 31.7355 19.9989C29.8826 19.2314 27.8966 18.8364 25.8909 18.8364C23.8853 18.8364 21.8993 19.2314 20.0463 19.9989C18.1934 20.7665 16.5097 21.8914 15.0915 23.3096C13.6733 24.7279 12.5483 26.4115 11.7807 28.2645C11.0132 30.1175 10.6182 32.1034 10.6182 34.1091C10.6182 36.1148 11.0132 38.1007 11.7807 39.9537C12.0388 40.5766 12.3372 41.1804 12.6736 41.7612ZM33.0182 42.4836C33.0182 46.2794 29.9412 49.3564 26.1455 49.3564C22.3498 49.3564 19.2727 46.2794 19.2727 42.4836C19.2727 38.6881 22.3498 35.611 26.1455 35.611C29.9412 35.611 33.0182 38.6881 33.0182 42.4836Z" fill="white"/>
</g>
<defs>
<filter id="filter0_d_101_419" x="0" y="0" width="57.8912" height="64" filterUnits="userSpaceOnUse" color-interpolation-filters="sRGB">
<feFlood flood-opacity="0" result="BackgroundImageFix"/>
<feColorMatrix in="SourceAlpha" type="matrix" values="0 0 0 0 0 0 0 0 0 0 0 0 0 0 0 0 0 0 127 0" result="hardAlpha"/>
<feOffset dy="4"/>
<feGaussianBlur stdDeviation="2"/>
<feComposite in2="hardAlpha" operator="out"/>
<feColorMatrix type="matrix" values="0 0 0 0 0 0 0 0 0 0 0 0 0 0 0 0 0 0 0.25 0"/>
<feBlend mode="normal" in2="BackgroundImageFix" result="effect1_dropShadow_101_419"/>
<feBlend mode="normal" in="SourceGraphic" in2="effect1_dropShadow_101_419" result="shape"/>
</filter>
</defs>
</svg>
